# Blender v3.1.2 OBJ File: ''
# www.blender.org
mtllib Books.mtl
o Book8_Cube.017
v 2.302438 1.754790 -1.603590
v 2.305808 1.754790 -1.607347
v 2.550604 1.754790 -1.381021
v 2.300987 1.752368 -1.601971
v 2.296503 1.744887 -1.596972
v 2.304385 1.752368 -1.605760
v 2.549153 1.752369 -1.379403
v 2.544669 1.744887 -1.374403
v 2.552552 1.752369 -1.383192
v 2.549910 1.751882 -1.387199
v 2.548155 1.744887 -1.378290
v 2.553975 1.754790 -1.384779
v 2.723953 1.752369 -1.574307
v 2.716538 1.751882 -1.572992
v 2.723953 1.754790 -1.574307
v 2.475786 1.752369 -1.796875
v 2.475786 1.754790 -1.796875
v 2.475283 1.751882 -1.789362
v 2.475283 1.744609 -1.789362
v 2.308655 1.751882 -1.603569
v 2.304381 1.744609 -1.598804
v 2.299988 1.744887 -1.600858
v 2.301881 1.734981 -1.596017
v 2.297417 1.734983 -1.597991
v 2.475283 1.734981 -1.789362
v 2.304381 1.725353 -1.598804
v 2.299988 1.725079 -1.600858
v 2.475283 1.725353 -1.789362
v 2.308850 1.717747 -1.603787
v 2.304586 1.717255 -1.605985
v 2.475283 1.717747 -1.789362
v 2.475786 1.717255 -1.796875
v 2.716538 1.717747 -1.572992
v 2.723953 1.717255 -1.574307
v 2.716538 1.725353 -1.572992
v 2.550106 1.717747 -1.387417
v 2.552752 1.717255 -1.383416
v 2.545636 1.725353 -1.382433
v 2.548155 1.725079 -1.378290
v 2.543137 1.734981 -1.379646
v 2.545584 1.734983 -1.375423
v 2.716538 1.734981 -1.572992
v 2.545636 1.744609 -1.382433
v 2.716538 1.744609 -1.572992
v 2.542047 1.734983 -1.371480
v 2.544669 1.725079 -1.374403
v 2.293881 1.734983 -1.594048
v 2.296503 1.725079 -1.596972
v 2.301192 1.717255 -1.602200
v 2.302438 1.715176 -1.603590
v 2.549358 1.717255 -1.379631
v 2.550604 1.715176 -1.381021
v 2.553975 1.715176 -1.384779
v 2.723953 1.715176 -1.574307
v 2.305808 1.715176 -1.607347
v 2.475786 1.715176 -1.796875
vt 0.972984 0.424283
vt 0.970538 0.424627
vt 0.970538 0.421764
vt 0.802227 0.424775
vt 0.802227 0.427843
vt 0.970538 0.427328
vt 0.970538 0.435272
vt 0.972984 0.434744
vt 0.972984 0.426624
vt 0.799643 0.424647
vt 0.799643 0.435081
vt 0.802227 0.435580
vt 0.797312 0.282470
vt 0.799643 0.282470
vt 0.797312 0.427594
vt 0.799643 0.427164
vt 0.802227 0.422281
vt 0.802227 0.277172
vt 0.970538 0.273771
vt 0.970538 0.277172
vt 0.802227 0.282470
vt 0.970538 0.282470
vt 0.972984 0.282470
vt 0.975263 0.282470
vt 0.975263 0.423967
vt 0.029836 0.752853
vt 0.036293 0.648054
vt 0.036293 0.752853
vt 0.036293 0.888932
vt 0.975263 0.427055
vt 0.975263 0.434960
vt 0.972984 0.445044
vt 0.975263 0.445041
vt 0.021290 0.752853
vt 0.029836 0.645365
vt 0.975263 0.454988
vt 0.972984 0.455208
vt 0.012743 0.645365
vt 0.021290 0.643793
vt 0.975263 0.463046
vt 0.972984 0.463481
vt 0.012743 0.752853
vt 0.005991 0.648177
vt 0.972984 0.466246
vt 0.975263 0.613230
vt 0.972984 0.613230
vt 0.802227 0.618595
vt 0.970538 0.622034
vt 0.802227 0.622034
vt 0.012744 0.888932
vt 0.005991 0.752853
vt 0.799643 0.466601
vt 0.797312 0.613230
vt 0.797312 0.466913
vt 0.005992 0.993605
vt 0.005992 0.888932
vt 0.799643 0.455546
vt 0.797312 0.463596
vt 0.797312 0.455334
vt 0.799643 0.445246
vt 0.797312 0.445253
vt 0.021290 0.888932
vt 0.012744 0.996416
vt 0.797312 0.435304
vt 0.029836 0.996416
vt 0.021290 0.997988
vt 0.029836 0.888932
vt 0.036293 0.993728
vt 0.802227 0.445229
vt 0.802227 0.455018
vt 0.970538 0.445062
vt 0.970538 0.454709
vt 0.970538 0.462804
vt 0.802227 0.465936
vt 0.970538 0.465783
vt 0.802227 0.463329
vt 0.799643 0.464033
vt 0.802227 0.468860
vt 0.970538 0.468342
vt 0.799643 0.613230
vt 0.802227 0.613230
vt 0.970538 0.613230
vt 0.970538 0.618595
vt 0.797312 0.424359
vt 0.802227 0.273771
vt 0.975263 0.466549
vn -0.4904 -0.4492 -0.7468
vn -0.7445 0.0001 -0.6677
vn -0.7445 -0.0000 -0.6677
vn -0.2720 0.9132 0.3033
vn 0.0000 1.0000 0.0000
vn -0.2720 0.9132 0.3034
vn -0.4969 0.6680 0.5540
vn -0.5676 0.5265 0.6329
vn -0.3016 -0.2828 -0.9106
vn 0.7956 -0.4491 0.4065
vn 0.7444 0.0001 0.6677
vn 0.7445 0.0000 0.6677
vn 0.9379 -0.2827 0.2010
vn 0.0668 -0.9977 0.0077
vn 0.8275 -0.5596 -0.0462
vn 0.3784 -0.9152 -0.1384
vn 0.7444 0.0000 0.6677
vn -0.0149 -0.9977 -0.0656
vn -0.0438 -0.5596 -0.8276
vn 0.9985 0.0000 -0.0543
vn -0.0543 0.0000 -0.9985
vn 0.0966 -0.9152 -0.3912
vn -0.7444 -0.0000 -0.6677
vn 0.6677 0.0000 -0.7445
vn 0.3381 -0.5089 -0.7917
vn -0.3305 -0.0000 -0.9438
vn 0.4045 0.0001 -0.9145
vn 0.3385 0.5090 -0.7914
vn -0.3014 0.2828 -0.9106
vn 0.0964 0.9149 -0.3920
vn -0.4905 0.4493 -0.7467
vn -0.0151 0.9977 -0.0663
vn -0.0438 0.5594 -0.8278
vn 0.8277 0.5593 -0.0463
vn 0.0676 0.9977 0.0078
vn 0.7955 0.4492 0.4067
vn 0.3792 0.9149 -0.1384
vn 0.9379 0.2828 0.2009
vn 0.7501 0.5090 -0.4223
vn 0.9741 -0.0000 0.2262
vn 0.8652 0.0001 -0.5013
vn 0.7503 -0.5089 -0.4220
vn -0.5676 -0.5265 0.6329
vn -0.6677 0.0000 0.7445
vn -0.4969 -0.6680 0.5540
vn -0.2721 -0.9132 0.3033
vn -0.2720 -0.9132 0.3033
vn -0.7445 0.0001 -0.6676
vn 0.7444 -0.0002 0.6677
vn 0.0000 -1.0000 0.0000
vn -0.7444 0.0001 -0.6677
vn -0.0544 0.0000 -0.9985
usemtl Books.001
s 1
f 6/1/1 1/2/2 2/3/3
f 3/4/4 2/3/5 1/2/6
f 7/5/7 1/2/6 4/6/7
f 5/7/8 7/5/7 4/6/7
f 22/8/9 4/6/3 6/9/1
f 9/10/10 3/4/11 7/5/12
f 11/11/13 7/5/12 8/12/12
f 9/10/10 14/13/14 13/14/15
f 11/11/13 10/15/16 9/16/10
f 13/14/15 12/17/17 9/10/10
f 13/18/15 18/19/18 16/20/19
f 15/21/20 16/20/19 17/22/21
f 16/23/19 2/3/3 17/22/21
f 6/1/1 18/24/18 20/25/22
f 19/26/3 20/27/23 18/28/3
f 14/29/24 19/26/24 18/28/24
f 22/8/9 20/30/22 21/31/25
f 24/32/26 21/31/25 23/33/27
f 25/34/3 21/35/23 19/26/3
f 24/32/26 26/36/28 27/37/29
f 25/34/3 26/38/3 23/39/3
f 27/37/29 29/40/30 30/41/31
f 28/42/3 29/43/3 26/38/3
f 30/44/31 31/45/32 32/46/33
f 34/47/34 31/48/32 33/49/35
f 35/50/24 31/51/24 28/42/24
f 37/52/36 33/53/35 36/54/37
f 35/50/12 36/55/12 33/56/12
f 39/57/38 36/58/37 38/59/39
f 41/60/40 38/59/39 40/61/41
f 42/62/12 38/63/12 35/50/12
f 41/60/40 43/64/42 11/11/13
f 42/62/12 43/65/12 40/66/12
f 44/67/12 10/68/17 43/65/12
f 44/67/24 25/34/24 19/26/24
f 42/62/24 28/42/24 25/34/24
f 41/60/40 8/12/12 45/69/12
f 41/60/40 46/70/12 39/57/38
f 46/70/43 47/71/44 48/72/43
f 45/69/44 5/7/8 47/71/44
f 24/32/26 5/7/3 22/8/9
f 24/32/26 48/72/3 47/71/3
f 27/37/29 49/73/3 48/72/3
f 49/73/45 46/70/43 48/72/43
f 52/74/46 49/73/45 50/75/47
f 30/44/31 50/75/48 49/73/3
f 39/57/38 51/76/17 37/77/36
f 37/52/36 52/74/49 53/78/49
f 53/78/50 50/75/47 55/79/50
f 34/80/34 53/78/49 54/81/20
f 54/81/50 55/79/50 56/82/50
f 32/46/33 55/79/51 30/44/31
f 34/47/34 56/82/52 32/83/33
f 2/3/5 15/21/5 17/22/5
f 6/1/1 4/6/3 1/2/2
f 3/4/4 12/17/5 2/3/5
f 7/5/7 3/4/4 1/2/6
f 5/7/8 8/12/8 7/5/7
f 22/8/9 5/7/3 4/6/3
f 9/10/10 12/17/17 3/4/11
f 11/11/13 9/16/10 7/5/12
f 9/10/10 10/84/16 14/13/14
f 11/11/13 43/64/42 10/15/16
f 13/14/15 15/21/20 12/17/17
f 13/18/15 14/85/14 18/19/18
f 15/21/20 13/18/15 16/20/19
f 16/23/19 6/1/1 2/3/3
f 6/1/1 16/23/19 18/24/18
f 19/26/3 21/35/23 20/27/23
f 14/29/24 44/67/24 19/26/24
f 22/8/9 6/9/1 20/30/22
f 24/32/26 22/8/9 21/31/25
f 25/34/3 23/39/3 21/35/23
f 24/32/26 23/33/27 26/36/28
f 25/34/3 28/42/3 26/38/3
f 27/37/29 26/36/28 29/40/30
f 28/42/3 31/51/3 29/43/3
f 30/44/31 29/86/30 31/45/32
f 34/47/34 32/83/33 31/48/32
f 35/50/24 33/56/24 31/51/24
f 37/52/36 34/80/34 33/53/35
f 35/50/12 38/63/12 36/55/12
f 39/57/38 37/77/36 36/58/37
f 41/60/40 39/57/38 38/59/39
f 42/62/12 40/66/12 38/63/12
f 41/60/40 40/61/41 43/64/42
f 42/62/12 44/67/12 43/65/12
f 44/67/12 14/29/12 10/68/17
f 44/67/24 42/62/24 25/34/24
f 42/62/24 35/50/24 28/42/24
f 41/60/40 11/11/13 8/12/12
f 41/60/40 45/69/12 46/70/12
f 46/70/43 45/69/44 47/71/44
f 45/69/44 8/12/8 5/7/8
f 24/32/26 47/71/3 5/7/3
f 24/32/26 27/37/29 48/72/3
f 27/37/29 30/41/31 49/73/3
f 49/73/45 51/76/45 46/70/43
f 52/74/46 51/76/45 49/73/45
f 30/44/31 55/79/51 50/75/48
f 39/57/38 46/70/12 51/76/17
f 37/52/36 51/76/17 52/74/49
f 53/78/50 52/74/46 50/75/47
f 34/80/34 37/52/36 53/78/49
f 54/81/50 53/78/50 55/79/50
f 32/46/33 56/82/52 55/79/51
f 34/47/34 54/81/20 56/82/52
f 2/3/5 12/17/5 15/21/5
