# Blender v3.1.2 OBJ File: ''
# www.blender.org
mtllib DoorFrame.mtl
o pared_puerta_02_메쉬.055
v 3.750000 1.100000 -0.950000
v 5.250000 1.100000 -0.950000
v 3.750000 3.100000 -0.950001
v 5.250000 3.100000 -0.950001
v 3.750000 1.614286 -0.950000
v 5.250000 1.614286 -0.950000
v 5.250000 1.157143 -0.950000
v 5.250000 1.557143 -0.950000
v 3.750000 1.557143 -0.950000
v 3.750000 1.157143 -0.950000
v 5.250000 1.100000 -0.900000
v 5.250000 1.157143 -0.900000
v 3.750000 1.157143 -0.900000
v 3.750000 1.100000 -0.900000
v 3.750000 1.614286 -0.900000
v 3.750000 1.557143 -0.900000
v 5.250000 1.557143 -0.900000
v 5.250000 1.614286 -0.900000
v 4.912500 3.100000 -0.950001
v 4.087500 1.100000 -0.950000
v 4.912500 1.614286 -0.950000
v 4.912500 1.157143 -0.950000
v 4.087500 1.557143 -0.950000
v 4.912500 1.157143 -0.900000
v 4.087500 1.100000 -0.900000
v 4.087500 3.100000 -0.950001
v 4.912500 1.100000 -0.950000
v 4.087500 1.614286 -0.950000
v 4.087500 1.157143 -0.950000
v 4.912500 1.557143 -0.950000
v 4.912500 1.100000 -0.900000
v 4.912500 1.557143 -0.900000
v 4.087500 1.614286 -0.900000
v 3.750000 2.242857 -0.950000
v 5.250000 2.242857 -0.950000
v 4.912500 2.242857 -0.950000
v 4.087500 2.242857 -0.950000
v 5.025000 3.100000 -0.950001
v 3.975000 1.100000 -0.950000
v 5.025000 1.614286 -0.950000
v 5.025000 1.157143 -0.950000
v 3.975000 1.557143 -0.950000
v 5.025000 1.157143 -0.900000
v 3.975000 1.100000 -0.900000
v 5.025000 1.614286 -0.900000
v 3.975000 3.100000 -0.950001
v 5.025000 1.100000 -0.950000
v 3.975000 1.614286 -0.950000
v 3.975000 1.157143 -0.950000
v 5.025000 1.557143 -0.950000
v 3.975000 1.157143 -0.900000
v 5.025000 1.100000 -0.900000
v 3.975000 1.614286 -0.900000
v 5.025000 2.242857 -0.950000
v 3.975000 2.242857 -0.950000
v 3.750000 2.328571 -0.950000
v 4.087500 2.328571 -0.950000
v 5.250000 2.328571 -0.950000
v 4.912500 2.328571 -0.950000
v 3.975000 2.328571 -0.950000
v 5.025000 2.328571 -0.950000
v 4.912500 2.242857 -0.900000
v 4.912500 1.614286 -0.900000
v 5.025000 2.242857 -0.900000
v 5.025000 2.328571 -0.900001
v 4.912500 2.328571 -0.900001
v 5.025000 1.557143 -0.900000
v 4.087500 1.157143 -0.900000
v 4.087500 1.557143 -0.900000
v 3.975000 1.557143 -0.900000
v 4.087500 2.242857 -0.900000
v 4.087500 2.328571 -0.900000
v 3.975000 2.328571 -0.900000
v 3.975000 2.242857 -0.900000
v 3.750000 1.100000 -1.050001
v 3.750000 1.157143 -1.050001
v 3.750000 1.157143 -1.100001
v 3.750000 1.100000 -1.100001
v 5.250000 1.157143 -1.050000
v 5.250000 1.100000 -1.050000
v 5.250000 1.100000 -1.100001
v 5.250000 1.157143 -1.100001
v 5.250000 1.614286 -1.050001
v 5.250000 1.557143 -1.050001
v 5.250000 1.557143 -1.100001
v 5.250000 1.614286 -1.100001
v 3.750000 1.557143 -1.050001
v 3.750000 1.614286 -1.050001
v 3.750000 1.614286 -1.100001
v 3.750000 1.557143 -1.100001
v 4.087500 1.614286 -1.100001
v 3.975000 1.614286 -1.100001
v 3.975000 2.242857 -1.100001
v 4.087500 2.242857 -1.100001
v 4.912500 3.100000 -1.050001
v 5.025000 3.100000 -1.050001
v 5.025000 2.328571 -1.050001
v 4.912500 2.328571 -1.050001
v 4.087500 1.157143 -1.100001
v 3.975000 1.157143 -1.100001
v 3.975000 1.557143 -1.100001
v 4.087500 1.557143 -1.100001
v 4.912500 1.557143 -1.100001
v 5.025000 1.557143 -1.100001
v 5.025000 1.157143 -1.100001
v 4.912500 1.157143 -1.100001
v 4.087500 1.100000 -1.100001
v 3.975000 1.100000 -1.100001
v 5.025000 1.100000 -1.100001
v 4.912500 1.100000 -1.100001
v 4.912500 1.614286 -1.100001
v 5.025000 1.614286 -1.100001
v 4.087500 1.100000 -1.050001
v 3.975000 1.100000 -1.050001
v 5.025000 1.100000 -1.050001
v 4.912500 1.100000 -1.050001
v 3.750000 2.242857 -1.050001
v 3.750000 2.328571 -1.050001
v 3.975000 2.328571 -1.050002
v 3.975000 2.242857 -1.050002
v 5.250000 2.242857 -1.050001
v 5.025000 1.614286 -1.050001
v 5.025000 2.242857 -1.050001
v 3.975000 1.614286 -1.050001
v 5.250000 3.100000 -1.050001
v 5.250000 2.328571 -1.050001
v 3.975000 1.157143 -1.050001
v 3.975000 1.557143 -1.050001
v 5.025000 1.557143 -1.050001
v 5.025000 1.157143 -1.050001
v 3.975000 3.100000 -1.050001
v 4.087500 3.100000 -1.050001
v 4.087500 2.328571 -1.050002
v 4.912500 2.242857 -1.100001
v 5.025000 2.242857 -1.100001
v 4.912500 2.328571 -1.100001
v 4.087500 2.328571 -1.100001
v 5.025000 2.328571 -1.100001
v 3.750000 3.100000 -1.050001
v 3.975000 2.328571 -1.100001
v 4.087500 2.242857 -1.050001
v 4.087500 1.614286 -1.050001
v 4.087500 1.557143 -1.050001
v 4.087500 1.157143 -1.050001
v 4.912500 1.157143 -1.050001
v 4.912500 1.557143 -1.050001
v 4.912500 1.614286 -1.050001
v 4.912500 2.242857 -1.050001
vt 0.787108 0.811810
vt 0.773230 0.784051
vt 0.787108 0.784051
vt 0.203401 0.783917
vt 0.217318 0.811753
vt 0.203401 0.811752
vt 0.204023 0.886761
vt 0.217934 0.858938
vt 0.217934 0.886761
vt 0.786942 0.886756
vt 0.773071 0.859011
vt 0.786942 0.859011
vt 0.643404 0.925271
vt 0.343536 0.952476
vt 0.343540 0.925216
vt 0.684296 0.925277
vt 0.766075 0.952539
vt 0.684294 0.952537
vt 0.056621 0.020591
vt 0.029673 0.047540
vt 0.029672 0.020591
vt 0.056624 0.236184
vt 0.029675 0.236184
vt 0.056625 0.263133
vt 0.029676 0.263134
vt 0.029680 0.600001
vt 0.056630 0.963814
vt 0.029681 0.963815
vt 0.302659 0.952704
vt 0.220879 0.925442
vt 0.302659 0.925443
vt 0.029696 0.559506
vt 0.056646 0.263065
vt 0.056645 0.559506
vt 0.029697 0.236115
vt 0.056646 0.236115
vt 0.056647 0.047471
vt 0.029698 0.020522
vt 0.056647 0.020522
vt 0.854891 0.493329
vt 0.820446 0.240722
vt 0.854892 0.240721
vt 0.259189 0.376256
vt 0.299733 0.741141
vt 0.259189 0.741140
vt 0.854897 0.217758
vt 0.820456 0.057007
vt 0.854902 0.057007
vt 0.745923 0.058207
vt 0.780375 0.218957
vt 0.745927 0.218957
vt 0.820458 0.034043
vt 0.854904 0.034043
vt 0.745920 0.035243
vt 0.780369 0.058207
vt 0.780379 0.241921
vt 0.745932 0.241921
vt 0.820450 0.217758
vt 0.820459 0.022560
vt 0.854905 0.022561
vt 0.745919 0.023761
vt 0.780366 0.035242
vt 0.302646 0.952471
vt 0.684241 0.952680
vt 0.643353 0.925418
vt 0.684242 0.925419
vt 0.029679 0.559575
vt 0.029696 0.599932
vt 0.056645 0.599932
vt 0.637594 0.376256
vt 0.718682 0.335713
vt 0.718681 0.376256
vt 0.259188 0.038401
vt 0.178103 0.335713
vt 0.178103 0.038401
vt 0.643400 0.952531
vt 0.343549 0.925444
vt 0.637597 0.038401
vt 0.718683 0.038401
vt 0.178103 0.376256
vt 0.178104 0.741140
vt 0.978721 0.511647
vt 0.897805 0.322841
vt 0.978721 0.322841
vt 0.734703 0.540767
vt 0.815868 0.730152
vt 0.734703 0.730152
vt 0.773230 0.811810
vt 0.689956 0.784050
vt 0.217318 0.783917
vt 0.300823 0.811753
vt 0.301401 0.886762
vt 0.773071 0.886756
vt 0.689839 0.859010
vt 0.300823 0.825671
vt 0.217318 0.825671
vt 0.773231 0.825690
vt 0.689956 0.811811
vt 0.689956 0.770170
vt 0.773231 0.770172
vt 0.217318 0.769999
vt 0.300823 0.783916
vt 0.689840 0.845137
vt 0.773072 0.845139
vt 0.217933 0.845026
vt 0.301401 0.858937
vt 0.301401 0.900674
vt 0.217933 0.900673
vt 0.773072 0.900629
vt 0.689839 0.886757
vt 0.220866 0.925210
vt 0.220866 0.952470
vt 0.766022 0.925422
vt 0.597048 0.376257
vt 0.637593 0.741140
vt 0.597048 0.741141
vt 0.780380 0.494529
vt 0.569407 0.317560
vt 0.331630 0.349984
vt 0.331630 0.317560
vt 0.056629 0.559575
vt 0.299206 0.349985
vt 0.299205 0.317561
vt 0.029696 0.963746
vt 0.056645 0.963746
vt 0.718680 0.741140
vt 0.259188 0.335713
vt 0.601833 0.317561
vt 0.569407 0.349984
vt 0.808963 0.240721
vt 0.820444 0.493329
vt 0.808961 0.493329
vt 0.866373 0.493329
vt 0.866374 0.240721
vt 0.612642 0.317562
vt 0.601832 0.349985
vt 0.569407 0.360792
vt 0.601832 0.360793
vt 0.808974 0.057006
vt 0.808967 0.217757
vt 0.866379 0.217758
vt 0.866385 0.057007
vt 0.791857 0.218956
vt 0.791850 0.058206
vt 0.734440 0.058207
vt 0.734446 0.218958
vt 0.791863 0.494529
vt 0.791861 0.241920
vt 0.569406 0.306752
vt 0.331630 0.306752
vt 0.331630 0.360792
vt 0.299206 0.360793
vt 0.288397 0.317562
vt 0.288397 0.349986
vt 0.734450 0.241921
vt 0.745934 0.494529
vt 0.734452 0.494529
vt 0.808976 0.034042
vt 0.146927 0.057125
vt 0.123463 0.080589
vt 0.123463 0.057125
vt 0.146927 0.080589
vt 0.123463 0.244840
vt 0.146927 0.244840
vt 0.123462 0.268305
vt 0.146927 0.268305
vt 0.123462 0.526414
vt 0.105536 0.565507
vt 0.082072 0.823616
vt 0.082072 0.565507
vt 0.084911 0.526262
vt 0.108376 0.268153
vt 0.108376 0.526262
vt 0.084912 0.268153
vt 0.108376 0.244689
vt 0.084912 0.244689
vt 0.108377 0.080438
vt 0.084912 0.056973
vt 0.108377 0.056973
vt 0.787109 0.811810
vt 0.773230 0.784051
vt 0.787109 0.784051
vt 0.203401 0.811752
vt 0.217319 0.783916
vt 0.217319 0.811752
vt 0.204023 0.858938
vt 0.217934 0.886761
vt 0.204023 0.886761
vt 0.786942 0.859011
vt 0.773071 0.886756
vt 0.773071 0.859011
vt 0.854891 0.493330
vt 0.820446 0.240722
vt 0.854892 0.240721
vt 0.259189 0.376257
vt 0.299733 0.741142
vt 0.259189 0.741141
vt 0.854897 0.217758
vt 0.820456 0.057007
vt 0.854902 0.057007
vt 0.745923 0.058207
vt 0.780375 0.218957
vt 0.745928 0.218958
vt 0.820458 0.034043
vt 0.854905 0.034043
vt 0.745921 0.035243
vt 0.780369 0.058207
vt 0.780379 0.241921
vt 0.745932 0.241921
vt 0.820450 0.217758
vt 0.820459 0.022560
vt 0.854906 0.022561
vt 0.780366 0.023760
vt 0.780367 0.035242
vt 0.637594 0.376257
vt 0.718682 0.335713
vt 0.718681 0.376256
vt 0.259187 0.038401
vt 0.178102 0.335714
vt 0.178102 0.038401
vt 0.637597 0.038401
vt 0.718683 0.038401
vt 0.178103 0.376257
vt 0.178103 0.741140
vt 0.978722 0.511647
vt 0.897806 0.322841
vt 0.978722 0.322841
vt 0.734703 0.540767
vt 0.815867 0.730152
vt 0.734703 0.730152
vt 0.773230 0.811810
vt 0.689956 0.784050
vt 0.300823 0.811753
vt 0.217934 0.858938
vt 0.301402 0.886762
vt 0.689839 0.859010
vt 0.300823 0.825671
vt 0.217318 0.825671
vt 0.689957 0.825691
vt 0.689956 0.811811
vt 0.689957 0.770170
vt 0.773231 0.770171
vt 0.217318 0.769998
vt 0.300823 0.783916
vt 0.689840 0.845137
vt 0.773072 0.845139
vt 0.301401 0.845025
vt 0.301402 0.858937
vt 0.301401 0.900674
vt 0.217934 0.900673
vt 0.689840 0.900630
vt 0.689839 0.886757
vt 0.597048 0.376258
vt 0.637593 0.741141
vt 0.597048 0.741142
vt 0.780381 0.494529
vt 0.569407 0.317560
vt 0.331630 0.349984
vt 0.331630 0.317560
vt 0.299206 0.349985
vt 0.299205 0.317561
vt 0.718680 0.741140
vt 0.259188 0.335714
vt 0.601833 0.317561
vt 0.569407 0.349984
vt 0.808963 0.240721
vt 0.820444 0.493330
vt 0.808961 0.493329
vt 0.866373 0.493329
vt 0.866374 0.240721
vt 0.612641 0.349985
vt 0.612642 0.317561
vt 0.569407 0.360791
vt 0.601832 0.349985
vt 0.601832 0.360793
vt 0.808967 0.217757
vt 0.866379 0.217758
vt 0.866385 0.057007
vt 0.791858 0.218956
vt 0.791851 0.058206
vt 0.734440 0.058207
vt 0.734446 0.218958
vt 0.791864 0.494529
vt 0.791862 0.241921
vt 0.569406 0.306751
vt 0.331630 0.306751
vt 0.331630 0.360791
vt 0.299206 0.360793
vt 0.288397 0.349985
vt 0.734451 0.241921
vt 0.745934 0.494529
vt 0.734452 0.494529
vt 0.808974 0.057006
vt 0.204023 0.858938
vt 0.766076 0.925279
vt 0.056622 0.047540
vt 0.056629 0.600001
vt 0.220878 0.952703
vt 0.029697 0.263065
vt 0.029698 0.047471
vt 0.299733 0.376257
vt 0.780366 0.023760
vt 0.302648 0.925210
vt 0.643352 0.952679
vt 0.637597 0.335713
vt 0.343549 0.952705
vt 0.897805 0.511647
vt 0.815867 0.540767
vt 0.689956 0.825691
vt 0.300823 0.769998
vt 0.301401 0.845025
vt 0.689840 0.900630
vt 0.766021 0.952683
vt 0.612641 0.349986
vt 0.791848 0.035241
vt 0.146927 0.526414
vt 0.105536 0.823616
vt 0.084912 0.080438
vt 0.203401 0.783917
vt 0.786942 0.886756
vt 0.299733 0.376258
vt 0.745920 0.023761
vt 0.637597 0.335713
vt 0.897806 0.511647
vt 0.815867 0.540767
vt 0.773231 0.825690
vt 0.300823 0.769997
vt 0.217934 0.845026
vt 0.773072 0.900629
vt 0.288397 0.317561
vt 0.808977 0.034042
vt 0.791849 0.035241
vn 1.0000 -0.0000 0.0000
vn -1.0000 0.0000 0.0000
vn 0.0000 1.0000 0.0000
vn 0.0000 -1.0000 0.0000
vn 0.0000 0.0000 1.0000
vn 0.0000 -0.0000 -1.0000
usemtl BASE.045
s 1
f 7/1/1 11/2/1 2/3/1
f 1/4/2 13/5/2 10/6/2
f 5/7/2 16/8/2 15/9/2
f 6/10/1 17/11/1 8/12/1
f 19/13/3 132/14/3 26/15/3
f 38/16/3 125/17/3 96/18/3
f 1/19/2 76/20/2 75/21/2
f 76/20/2 9/22/2 87/23/2
f 87/23/2 5/24/2 88/25/2
f 118/26/2 3/27/2 139/28/2
f 39/29/4 75/30/4 114/31/4
f 35/32/1 83/33/1 121/34/1
f 83/33/1 8/35/1 84/36/1
f 8/35/1 79/37/1 84/36/1
f 79/37/1 2/38/1 80/39/1
f 64/40/5 63/41/5 45/42/5
f 60/43/5 26/44/5 46/45/5
f 67/46/5 24/47/5 43/48/5
f 51/49/5 69/50/5 70/51/5
f 43/48/5 31/52/5 52/53/5
f 44/54/5 68/55/5 51/49/5
f 70/51/5 33/56/5 53/57/5
f 45/42/5 32/58/5 67/46/5
f 52/53/4 27/59/4 47/60/4
f 39/61/4 25/62/4 44/54/4
f 131/63/3 26/15/3 132/14/3
f 47/64/4 116/65/4 115/66/4
f 5/24/2 117/67/2 88/25/2
f 58/68/1 121/34/1 126/69/1
f 61/70/5 35/71/5 58/72/5
f 48/73/5 34/74/5 5/75/5
f 19/13/3 96/18/3 95/76/3
f 113/77/4 39/29/4 114/31/4
f 35/71/5 40/78/5 6/79/5
f 56/80/5 46/45/5 3/81/5
f 8/82/5 41/83/5 7/84/5
f 10/85/5 42/86/5 9/87/5
f 12/88/5 52/89/5 11/2/5
f 14/90/5 51/91/5 13/5/5
f 16/8/5 53/92/5 15/9/5
f 18/93/5 67/94/5 17/11/5
f 13/5/3 49/95/3 10/96/3
f 7/97/3 43/98/3 12/88/3
f 11/2/4 47/99/4 2/100/4
f 1/101/4 44/102/4 14/90/4
f 17/11/4 50/103/4 8/104/4
f 9/105/4 70/106/4 16/8/4
f 15/9/3 48/107/3 5/108/3
f 6/109/3 45/110/3 18/93/3
f 3/111/3 131/63/3 139/112/3
f 80/113/4 47/64/4 115/66/4
f 59/114/5 38/115/5 19/116/5
f 71/117/5 53/57/5 33/56/5
f 62/118/5 72/119/5 71/120/5
f 34/121/2 118/26/2 117/67/2
f 71/120/5 73/122/5 74/123/5
f 26/44/5 59/114/5 19/116/5
f 4/124/1 126/69/1 125/125/1
f 38/115/5 58/72/5 4/126/5
f 55/127/5 56/80/5 34/74/5
f 64/128/5 66/129/5 62/118/5
f 21/130/2 62/131/2 36/132/2
f 54/133/1 45/42/1 40/134/1
f 54/135/1 65/136/1 64/128/1
f 59/137/3 65/136/3 61/138/3
f 22/139/2 32/58/2 30/140/2
f 50/141/1 43/48/1 41/142/1
f 23/143/1 68/55/1 29/144/1
f 49/145/2 70/51/2 42/146/2
f 37/147/1 33/56/1 28/148/1
f 36/149/4 71/120/4 37/150/4
f 72/119/3 59/137/3 57/151/3
f 60/152/3 72/119/3 57/151/3
f 55/153/2 73/122/2 60/154/2
f 48/155/2 74/156/2 55/157/2
f 32/58/2 21/130/2 30/140/2
f 69/50/1 28/148/1 33/56/1
f 27/158/2 24/47/2 22/139/2
f 25/62/1 29/144/1 68/55/1
f 27/159/2 145/160/2 116/161/2
f 22/162/2 146/163/2 145/160/2
f 30/164/2 147/165/2 146/163/2
f 21/166/2 148/167/2 147/165/2
f 36/168/4 141/169/4 148/170/4
f 37/171/1 142/172/1 141/173/1
f 28/174/1 143/175/1 142/172/1
f 23/176/1 144/177/1 143/175/1
f 144/177/1 20/178/1 113/179/1
f 76/180/2 78/181/2 75/182/2
f 79/183/1 81/184/1 82/185/1
f 84/186/1 86/187/1 83/188/1
f 87/189/2 89/190/2 90/191/2
f 93/192/6 91/193/6 92/194/6
f 97/195/6 95/196/6 96/197/6
f 101/198/6 99/199/6 100/200/6
f 105/201/6 103/202/6 104/203/6
f 100/200/6 107/204/6 108/205/6
f 109/206/6 106/207/6 105/201/6
f 104/203/6 111/208/6 112/209/6
f 92/194/6 102/210/6 101/198/6
f 108/205/4 113/211/4 114/212/4
f 109/206/4 116/213/4 110/214/4
f 119/215/6 117/216/6 118/217/6
f 122/218/6 121/219/6 83/220/6
f 117/216/6 124/221/6 88/222/6
f 126/223/6 96/197/6 125/224/6
f 87/225/6 127/226/6 76/227/6
f 79/228/6 129/229/6 84/230/6
f 77/231/6 108/232/6 78/181/6
f 81/184/6 105/233/6 82/185/6
f 85/234/6 112/235/6 86/187/6
f 89/190/6 101/236/6 90/191/6
f 82/185/3 130/237/3 79/238/3
f 77/231/3 127/239/3 100/240/3
f 78/181/4 114/241/4 75/242/4
f 80/243/4 109/244/4 81/184/4
f 90/191/4 128/245/4 87/246/4
f 85/234/4 129/247/4 104/248/4
f 86/187/3 122/249/3 83/250/3
f 89/190/3 124/251/3 92/252/3
f 133/253/6 131/254/6 132/255/6
f 134/256/6 112/209/6 111/208/6
f 94/257/6 136/258/6 134/259/6
f 134/259/6 138/260/6 135/261/6
f 95/196/6 133/253/6 132/255/6
f 131/254/6 118/217/6 139/262/6
f 123/263/6 126/223/6 121/219/6
f 93/264/6 137/265/6 94/257/6
f 142/266/1 94/267/1 141/268/1
f 120/269/2 92/194/2 124/270/2
f 119/271/2 93/264/2 120/272/2
f 133/273/3 140/274/3 119/275/3
f 143/276/1 99/199/1 102/210/1
f 128/277/2 100/200/2 127/278/2
f 146/279/2 106/207/2 145/280/2
f 130/281/1 104/203/1 129/282/1
f 148/283/2 111/208/2 147/284/2
f 141/285/4 134/259/4 148/286/4
f 136/258/3 133/273/3 98/287/3
f 97/288/3 136/258/3 98/287/3
f 97/289/1 135/261/1 138/260/1
f 122/290/1 135/291/1 123/292/1
f 91/193/1 143/276/1 102/210/1
f 111/208/2 146/279/2 147/284/2
f 144/293/1 107/204/1 99/199/1
f 110/214/2 145/280/2 106/207/2
f 7/1/1 12/88/1 11/2/1
f 1/4/2 14/90/2 13/5/2
f 5/7/2 9/294/2 16/8/2
f 6/10/1 18/93/1 17/11/1
f 19/13/3 95/76/3 132/14/3
f 38/16/3 4/295/3 125/17/3
f 1/19/2 10/296/2 76/20/2
f 76/20/2 10/296/2 9/22/2
f 87/23/2 9/22/2 5/24/2
f 118/26/2 56/297/2 3/27/2
f 39/29/4 1/298/4 75/30/4
f 35/32/1 6/299/1 83/33/1
f 83/33/1 6/299/1 8/35/1
f 8/35/1 7/300/1 79/37/1
f 79/37/1 7/300/1 2/38/1
f 64/40/5 62/131/5 63/41/5
f 60/43/5 57/301/5 26/44/5
f 67/46/5 32/58/5 24/47/5
f 51/49/5 68/55/5 69/50/5
f 43/48/5 24/47/5 31/52/5
f 44/54/5 25/62/5 68/55/5
f 70/51/5 69/50/5 33/56/5
f 45/42/5 63/41/5 32/58/5
f 52/53/4 31/52/4 27/59/4
f 39/61/4 20/302/4 25/62/4
f 131/63/3 46/303/3 26/15/3
f 47/64/4 27/304/4 116/65/4
f 5/24/2 34/121/2 117/67/2
f 58/68/1 35/32/1 121/34/1
f 61/70/5 54/305/5 35/71/5
f 48/73/5 55/127/5 34/74/5
f 19/13/3 38/16/3 96/18/3
f 113/77/4 20/306/4 39/29/4
f 35/71/5 54/305/5 40/78/5
f 56/80/5 60/43/5 46/45/5
f 8/82/5 50/307/5 41/83/5
f 10/85/5 49/308/5 42/86/5
f 12/88/5 43/98/5 52/89/5
f 14/90/5 44/102/5 51/91/5
f 16/8/5 70/106/5 53/92/5
f 18/93/5 45/110/5 67/94/5
f 13/5/3 51/91/3 49/95/3
f 7/97/3 41/309/3 43/98/3
f 11/2/4 52/89/4 47/99/4
f 1/101/4 39/310/4 44/102/4
f 17/11/4 67/94/4 50/103/4
f 9/105/4 42/311/4 70/106/4
f 15/9/3 53/92/3 48/107/3
f 6/109/3 40/312/3 45/110/3
f 3/111/3 46/303/3 131/63/3
f 80/113/4 2/313/4 47/64/4
f 59/114/5 61/70/5 38/115/5
f 71/117/5 74/156/5 53/57/5
f 62/118/5 66/129/5 72/119/5
f 34/121/2 56/297/2 118/26/2
f 71/120/5 72/119/5 73/122/5
f 26/44/5 57/301/5 59/114/5
f 4/124/1 58/68/1 126/69/1
f 38/115/5 61/70/5 58/72/5
f 55/127/5 60/43/5 56/80/5
f 64/128/5 65/136/5 66/129/5
f 21/130/2 63/41/2 62/131/2
f 54/133/1 64/40/1 45/42/1
f 54/135/1 61/314/1 65/136/1
f 59/137/3 66/129/3 65/136/3
f 22/139/2 24/47/2 32/58/2
f 50/141/1 67/46/1 43/48/1
f 23/143/1 69/50/1 68/55/1
f 49/145/2 51/49/2 70/51/2
f 37/147/1 71/117/1 33/56/1
f 36/149/4 62/118/4 71/120/4
f 72/119/3 66/129/3 59/137/3
f 60/152/3 73/122/3 72/119/3
f 55/153/2 74/123/2 73/122/2
f 48/155/2 53/57/2 74/156/2
f 32/58/2 63/41/2 21/130/2
f 69/50/1 23/143/1 28/148/1
f 27/158/2 31/52/2 24/47/2
f 25/62/1 20/315/1 29/144/1
f 27/159/2 22/162/2 145/160/2
f 22/162/2 30/164/2 146/163/2
f 30/164/2 21/166/2 147/165/2
f 21/166/2 36/316/2 148/167/2
f 36/168/4 37/317/4 141/169/4
f 37/171/1 28/174/1 142/172/1
f 28/174/1 23/176/1 143/175/1
f 23/176/1 29/318/1 144/177/1
f 144/177/1 29/318/1 20/178/1
f 76/180/2 77/231/2 78/181/2
f 79/183/1 80/319/1 81/184/1
f 84/186/1 85/234/1 86/187/1
f 87/189/2 88/320/2 89/190/2
f 93/192/6 94/267/6 91/193/6
f 97/195/6 98/321/6 95/196/6
f 101/198/6 102/210/6 99/199/6
f 105/201/6 106/207/6 103/202/6
f 100/200/6 99/199/6 107/204/6
f 109/206/6 110/214/6 106/207/6
f 104/203/6 103/202/6 111/208/6
f 92/194/6 91/193/6 102/210/6
f 108/205/4 107/204/4 113/211/4
f 109/206/4 115/322/4 116/213/4
f 119/215/6 120/323/6 117/216/6
f 122/218/6 123/263/6 121/219/6
f 117/216/6 120/323/6 124/221/6
f 126/223/6 97/195/6 96/197/6
f 87/225/6 128/324/6 127/226/6
f 79/228/6 130/325/6 129/229/6
f 77/231/6 100/240/6 108/232/6
f 81/184/6 109/244/6 105/233/6
f 85/234/6 104/248/6 112/235/6
f 89/190/6 92/252/6 101/236/6
f 82/185/3 105/233/3 130/237/3
f 77/231/3 76/326/3 127/239/3
f 78/181/4 108/232/4 114/241/4
f 80/243/4 115/327/4 109/244/4
f 90/191/4 101/236/4 128/245/4
f 85/234/4 84/328/4 129/247/4
f 86/187/3 112/235/3 122/249/3
f 89/190/3 88/329/3 124/251/3
f 133/253/6 119/215/6 131/254/6
f 134/256/6 135/291/6 112/209/6
f 94/257/6 137/265/6 136/258/6
f 134/259/6 136/258/6 138/260/6
f 95/196/6 98/321/6 133/253/6
f 131/254/6 119/215/6 118/217/6
f 123/263/6 97/195/6 126/223/6
f 93/264/6 140/274/6 137/265/6
f 142/266/1 91/193/1 94/267/1
f 120/269/2 93/192/2 92/194/2
f 119/271/2 140/274/2 93/264/2
f 133/273/3 137/265/3 140/274/3
f 143/276/1 144/293/1 99/199/1
f 128/277/2 101/198/2 100/200/2
f 146/279/2 103/202/2 106/207/2
f 130/281/1 105/201/1 104/203/1
f 148/283/2 134/256/2 111/208/2
f 141/285/4 94/257/4 134/259/4
f 136/258/3 137/265/3 133/273/3
f 97/288/3 138/260/3 136/258/3
f 97/289/1 123/330/1 135/261/1
f 122/290/1 112/209/1 135/291/1
f 91/193/1 142/266/1 143/276/1
f 111/208/2 103/202/2 146/279/2
f 144/293/1 113/331/1 107/204/1
f 110/214/2 116/332/2 145/280/2
