# Blender v3.1.2 OBJ File: ''
# www.blender.org
mtllib Roof.mtl
o 평면.008
v 0.750000 3.100000 -3.000000
v 2.250000 3.100000 -3.000000
v 0.750000 3.100000 -1.000000
v 2.250000 3.100000 -1.000000
vt 1.000000 0.000000
vt 0.000000 1.000000
vt 0.000000 0.000000
vt 1.000000 1.000000
vn 0.0000 -1.0000 0.0000
usemtl None
s off
f 2/1/1 3/2/1 1/3/1
f 2/1/1 4/4/1 3/2/1
o 평면.009
v 2.250000 3.100000 -3.000000
v 3.750000 3.100000 -3.000000
v 2.250000 3.100000 -1.000000
v 3.750000 3.100000 -1.000000
vt 1.000000 0.000000
vt 0.000000 1.000000
vt 0.000000 0.000000
vt 1.000000 1.000000
vn 0.0000 -1.0000 0.0000
usemtl None
s off
f 6/5/2 7/6/2 5/7/2
f 6/5/2 8/8/2 7/6/2
o 평면.010
v 3.750000 3.100000 -3.000000
v 5.250000 3.100000 -3.000000
v 3.750000 3.100000 -1.000000
v 5.250000 3.100000 -1.000000
vt 1.000000 0.000000
vt 0.000000 1.000000
vt 0.000000 0.000000
vt 1.000000 1.000000
vn 0.0000 -1.0000 0.0000
usemtl None
s off
f 10/9/3 11/10/3 9/11/3
f 10/9/3 12/12/3 11/10/3
o 평면.011
v 3.750000 3.100000 -5.000000
v 5.250000 3.100000 -5.000000
v 3.750000 3.100000 -3.000000
v 5.250000 3.100000 -3.000000
vt 1.000000 0.000000
vt 0.000000 1.000000
vt 0.000000 0.000000
vt 1.000000 1.000000
vn 0.0000 -1.0000 0.0000
usemtl None
s off
f 14/13/4 15/14/4 13/15/4
f 14/13/4 16/16/4 15/14/4
o 평면.012
v 2.250000 3.100000 -5.000000
v 3.750000 3.100000 -5.000000
v 2.250000 3.100000 -3.000000
v 3.750000 3.100000 -3.000000
vt 1.000000 0.000000
vt 0.000000 1.000000
vt 0.000000 0.000000
vt 1.000000 1.000000
vn 0.0000 -1.0000 0.0000
usemtl None
s off
f 18/17/5 19/18/5 17/19/5
f 18/17/5 20/20/5 19/18/5
o 평면.013
v 0.750000 3.100000 -5.000000
v 2.250000 3.100000 -5.000000
v 0.750000 3.100000 -3.000000
v 2.250000 3.100000 -3.000000
vt 1.000000 0.000000
vt 0.000000 1.000000
vt 0.000000 0.000000
vt 1.000000 1.000000
vn 0.0000 -1.0000 0.0000
usemtl None
s off
f 22/21/6 23/22/6 21/23/6
f 22/21/6 24/24/6 23/22/6
o 평면.014
v -0.750000 3.100000 -5.000000
v 0.750000 3.100000 -5.000000
v -0.750000 3.100000 -3.000000
v 0.750000 3.100000 -3.000000
vt 1.000000 0.000000
vt 0.000000 1.000000
vt 0.000000 0.000000
vt 1.000000 1.000000
vn 0.0000 -1.0000 0.0000
usemtl None
s off
f 26/25/7 27/26/7 25/27/7
f 26/25/7 28/28/7 27/26/7
o 평면.015
v -0.750000 3.100000 -3.000000
v 0.750000 3.100000 -3.000000
v -0.750000 3.100000 -1.000000
v 0.750000 3.100000 -1.000000
vt 1.000000 0.000000
vt 0.000000 1.000000
vt 0.000000 0.000000
vt 1.000000 1.000000
vn 0.0000 -1.0000 0.0000
usemtl None
s off
f 30/29/8 31/30/8 29/31/8
f 30/29/8 32/32/8 31/30/8
