# Blender v3.1.2 OBJ File: ''
# www.blender.org
mtllib Stool.mtl
o taburete01_메쉬.066
v 2.549887 1.538187 -1.951615
v 2.509887 1.538187 -1.951615
v 2.549887 1.538187 -1.911615
v 2.509887 1.538187 -1.911615
v 2.579887 1.100000 -1.921615
v 2.539887 1.100000 -1.921615
v 2.579887 1.100000 -1.881616
v 2.539887 1.100000 -1.881616
v 2.337490 1.494943 -1.923417
v 2.518194 1.494943 -1.923417
v 2.337490 1.538136 -1.923417
v 2.518194 1.538136 -1.923417
v 2.337490 1.494943 -1.938417
v 2.518194 1.494943 -1.938417
v 2.337490 1.538136 -1.938417
v 2.518194 1.538136 -1.938417
v 2.310696 1.207712 -1.901484
v 2.544987 1.207712 -1.901484
v 2.310696 1.254469 -1.904486
v 2.544987 1.254469 -1.904486
v 2.310696 1.206840 -1.916456
v 2.544987 1.206840 -1.916456
v 2.310696 1.253597 -1.919458
v 2.544987 1.253597 -1.919458
v 2.277780 1.541045 -1.883649
v 2.574780 1.538187 -1.886649
v 2.277780 1.541045 -2.183649
v 2.574780 1.538187 -2.180649
v 2.277780 1.554381 -1.883649
v 2.577780 1.554381 -1.883649
v 2.277780 1.554381 -2.183649
v 2.577780 1.554381 -2.183649
v 2.280780 1.538187 -1.886649
v 2.577780 1.541045 -1.883649
v 2.280780 1.538187 -2.180649
v 2.577780 1.541045 -2.183649
v 2.280780 1.557238 -1.886649
v 2.574780 1.557238 -1.886649
v 2.280780 1.557238 -2.180649
v 2.574780 1.557238 -2.180649
v 2.305672 1.538187 -2.115681
v 2.345672 1.538187 -2.115681
v 2.305672 1.538187 -2.155682
v 2.345672 1.538187 -2.155682
v 2.275672 1.100000 -2.145681
v 2.315672 1.100000 -2.145681
v 2.275672 1.100000 -2.185682
v 2.315672 1.100000 -2.185682
v 2.518070 1.494943 -2.143880
v 2.337365 1.494943 -2.143880
v 2.518070 1.538136 -2.143880
v 2.337365 1.538136 -2.143880
v 2.518070 1.494943 -2.128880
v 2.337365 1.494943 -2.128880
v 2.518070 1.538136 -2.128880
v 2.337365 1.538136 -2.128880
v 2.544863 1.207712 -2.165813
v 2.310572 1.207712 -2.165813
v 2.544863 1.254469 -2.162811
v 2.310572 1.254469 -2.162811
v 2.544863 1.206840 -2.150841
v 2.310572 1.206840 -2.150841
v 2.544863 1.253597 -2.147839
v 2.310572 1.253597 -2.147839
v 2.345747 1.538187 -1.911541
v 2.345747 1.538187 -1.951541
v 2.305747 1.538187 -1.911541
v 2.305747 1.538187 -1.951541
v 2.315747 1.100000 -1.881541
v 2.315747 1.100000 -1.921541
v 2.275747 1.100000 -1.881541
v 2.275747 1.100000 -1.921541
v 2.317548 1.494943 -2.123938
v 2.317548 1.494943 -1.943234
v 2.317548 1.538136 -2.123938
v 2.317548 1.538136 -1.943234
v 2.332548 1.494943 -2.123938
v 2.332548 1.494943 -1.943234
v 2.332548 1.538136 -2.123938
v 2.332548 1.538136 -1.943234
v 2.295615 1.207712 -2.150732
v 2.295615 1.207712 -1.916441
v 2.298617 1.254469 -2.150732
v 2.298617 1.254469 -1.916441
v 2.310587 1.206840 -2.150732
v 2.310587 1.206840 -1.916441
v 2.313589 1.253597 -2.150732
v 2.313589 1.253597 -1.916441
v 2.509813 1.538187 -2.155756
v 2.509813 1.538187 -2.115756
v 2.549813 1.538187 -2.155756
v 2.549813 1.538187 -2.115756
v 2.539813 1.100000 -2.185756
v 2.539813 1.100000 -2.145756
v 2.579813 1.100000 -2.185756
v 2.579813 1.100000 -2.145756
v 2.538011 1.494943 -1.943359
v 2.538011 1.494943 -2.124063
v 2.538011 1.538136 -1.943359
v 2.538011 1.538136 -2.124063
v 2.523011 1.494943 -1.943359
v 2.523011 1.494943 -2.124063
v 2.523011 1.538136 -1.943359
v 2.523011 1.538136 -2.124063
v 2.559944 1.207712 -1.916565
v 2.559944 1.207712 -2.150856
v 2.556942 1.254469 -1.916565
v 2.556942 1.254469 -2.150856
v 2.544972 1.206840 -1.916565
v 2.544972 1.206840 -2.150856
v 2.541970 1.253597 -1.916565
v 2.541970 1.253597 -2.150856
vt 0.560756 0.725104
vt 0.607772 0.671540
vt 0.611046 0.721830
vt 0.607764 0.089519
vt 0.554200 0.042503
vt 0.604490 0.039229
vt 0.456899 0.674815
vt 0.507185 0.096066
vt 0.507191 0.678087
vt 0.557482 0.674814
vt 0.557474 0.092793
vt 0.658056 0.092791
vt 0.658060 0.674812
vt 0.682068 0.412913
vt 0.918725 0.353530
vt 0.918725 0.412913
vt 0.918724 0.333885
vt 0.682068 0.274503
vt 0.918724 0.274502
vt 0.918724 0.254858
vt 0.682068 0.353530
vt 0.983527 0.186865
vt 0.676691 0.122462
vt 0.983527 0.122462
vt 0.983527 0.038415
vt 0.676692 0.102817
vt 0.676692 0.038414
vt 0.983527 0.102817
vt 0.676691 0.186864
vt 0.983527 0.206509
vt 0.676691 0.206508
vt 0.038836 0.460562
vt 0.414976 0.836701
vt 0.038838 0.836701
vt 0.414942 0.055616
vt 0.038809 0.431757
vt 0.038806 0.055616
vt 0.418777 0.032272
vt 0.034965 0.050184
vt 0.034964 0.032272
vt 0.438279 0.435589
vt 0.420368 0.051777
vt 0.438278 0.051776
vt 0.034991 0.455124
vt 0.418795 0.437200
vt 0.418804 0.455123
vt 0.015467 0.051776
vt 0.033378 0.435590
vt 0.015466 0.435589
vt 0.033410 0.840539
vt 0.414974 0.460562
vt 0.420404 0.456726
vt 0.418814 0.842130
vt 0.414945 0.431757
vt 0.560756 0.725104
vt 0.607772 0.671540
vt 0.611046 0.721830
vt 0.607764 0.089519
vt 0.554200 0.042503
vt 0.604490 0.039229
vt 0.456899 0.674815
vt 0.507185 0.096067
vt 0.507191 0.678087
vt 0.557482 0.674814
vt 0.557474 0.092793
vt 0.658056 0.092792
vt 0.658060 0.674812
vt 0.682068 0.412913
vt 0.918725 0.353530
vt 0.918725 0.412913
vt 0.918724 0.333885
vt 0.682068 0.274503
vt 0.918724 0.274502
vt 0.918724 0.254858
vt 0.682068 0.353530
vt 0.983527 0.186865
vt 0.676691 0.122462
vt 0.983527 0.122462
vt 0.983527 0.038415
vt 0.676692 0.102817
vt 0.676692 0.038414
vt 0.983527 0.102817
vt 0.676691 0.186864
vt 0.983527 0.206509
vt 0.676691 0.206508
vt 0.560756 0.725104
vt 0.607772 0.671540
vt 0.611046 0.721830
vt 0.607764 0.089519
vt 0.554200 0.042503
vt 0.604490 0.039229
vt 0.456899 0.674815
vt 0.507185 0.096066
vt 0.507191 0.678087
vt 0.557483 0.674814
vt 0.557473 0.092793
vt 0.658056 0.092791
vt 0.658061 0.674812
vt 0.682068 0.412913
vt 0.918725 0.353530
vt 0.918725 0.412913
vt 0.918724 0.333885
vt 0.682068 0.274503
vt 0.918724 0.274502
vt 0.918724 0.254858
vt 0.682068 0.353530
vt 0.983527 0.186865
vt 0.676691 0.122462
vt 0.983527 0.122462
vt 0.983527 0.038415
vt 0.676692 0.102817
vt 0.676692 0.038414
vt 0.983527 0.102817
vt 0.676691 0.186864
vt 0.983527 0.206509
vt 0.676691 0.206508
vt 0.560757 0.725104
vt 0.607772 0.671539
vt 0.611046 0.721830
vt 0.607764 0.089519
vt 0.554199 0.042502
vt 0.604490 0.039229
vt 0.456899 0.674815
vt 0.507184 0.096066
vt 0.507191 0.678087
vt 0.557483 0.674813
vt 0.557473 0.092793
vt 0.658056 0.092791
vt 0.658061 0.674812
vt 0.682068 0.412913
vt 0.918725 0.353530
vt 0.918725 0.412913
vt 0.918724 0.333885
vt 0.682068 0.274503
vt 0.918724 0.274502
vt 0.918724 0.254858
vt 0.682068 0.353530
vt 0.983527 0.186865
vt 0.676691 0.122462
vt 0.983527 0.122462
vt 0.983527 0.038415
vt 0.676692 0.102817
vt 0.676692 0.038414
vt 0.983527 0.102817
vt 0.676691 0.186864
vt 0.983527 0.206509
vt 0.676691 0.206508
vt 0.456896 0.092794
vt 0.682068 0.333885
vt 0.682067 0.254858
vt 0.418778 0.050184
vt 0.420368 0.435590
vt 0.034981 0.437200
vt 0.033379 0.051777
vt 0.033410 0.456726
vt 0.420404 0.840539
vt 0.035001 0.842130
vt 0.456896 0.092794
vt 0.682068 0.333885
vt 0.682067 0.254858
vt 0.456896 0.092794
vt 0.682068 0.333885
vt 0.682067 0.254858
vt 0.456896 0.092794
vt 0.682068 0.333885
vt 0.682067 0.254858
vn 0.0000 1.0000 0.0000
vn 0.0000 -1.0000 0.0000
vn 0.0000 -0.0683 -0.9977
vn -0.9977 -0.0683 0.0000
vn 0.0000 0.0683 0.9977
vn 0.9977 0.0683 0.0000
vn 0.0000 0.0000 1.0000
vn 0.0000 0.0000 -1.0000
vn 0.0000 0.0641 0.9979
vn 0.0000 -0.0641 -0.9979
vn 0.0000 0.9983 -0.0582
vn 0.0000 0.9983 -0.0581
vn 0.0000 -0.9983 0.0582
vn 1.0000 0.0000 0.0000
vn -1.0000 0.0000 0.0000
vn -0.6897 -0.7241 0.0000
vn 0.0000 -0.7241 -0.6897
vn 0.6897 -0.7241 0.0000
vn 0.6898 -0.7240 0.0000
vn 0.0000 -0.7241 0.6897
vn -0.0000 0.7241 0.6897
vn 0.6897 0.7241 0.0000
vn 0.6898 0.7240 0.0000
vn -0.0000 0.7241 -0.6897
vn -0.6897 0.7241 0.0000
vn 0.0000 -0.0683 0.9977
vn 0.9977 -0.0683 0.0000
vn 0.0000 0.0683 -0.9977
vn -0.9977 0.0683 0.0000
vn 0.0000 0.0641 -0.9979
vn 0.0000 -0.0641 0.9979
vn 0.0000 0.9983 0.0582
vn 0.0000 -0.9983 -0.0582
vn -0.9979 0.0641 0.0000
vn 0.9979 -0.0641 0.0000
vn 0.0582 0.9983 0.0000
vn -0.0582 -0.9983 0.0000
vn 0.9979 0.0641 0.0000
vn -0.9979 -0.0641 0.0000
vn -0.0582 0.9983 0.0000
vn 0.0582 -0.9983 0.0000
vn 0.0000 -0.9983 0.0581
usemtl BASE.153
s 1
f 2/1/1 3/2/1 1/3/1
f 7/4/2 6/5/2 5/6/2
f 1/7/3 6/8/3 2/9/3
f 6/8/4 4/10/4 2/9/4
f 8/11/5 3/2/5 4/10/5
f 3/2/6 5/12/6 1/13/6
f 10/14/7 11/15/7 9/16/7
f 15/17/8 14/18/8 13/19/8
f 14/18/2 9/20/2 13/19/2
f 12/21/1 15/17/1 11/15/1
f 17/22/9 20/23/9 19/24/9
f 21/25/10 24/26/10 22/27/10
f 20/23/11 23/28/11 19/24/12
f 18/29/13 21/30/13 22/31/13
f 35/32/2 26/33/2 33/34/2
f 38/35/1 39/36/1 37/37/1
f 34/38/7 29/39/7 25/40/7
f 36/41/14 30/42/14 34/43/14
f 27/44/8 32/45/8 36/46/8
f 25/47/15 31/48/15 27/49/15
f 25/50/16 35/32/16 33/34/16
f 27/44/17 28/51/17 35/32/17
f 36/52/18 26/33/19 28/51/18
f 34/53/20 33/34/20 26/33/20
f 29/39/21 38/35/21 37/37/21
f 30/42/22 40/54/23 38/35/22
f 32/45/24 39/36/24 40/54/24
f 31/48/25 37/37/25 39/36/25
f 42/55/1 43/56/1 41/57/1
f 47/58/2 46/59/2 45/60/2
f 41/61/26 46/62/26 42/63/26
f 46/62/27 44/64/27 42/63/27
f 48/65/28 43/56/28 44/64/28
f 43/56/29 45/66/29 41/67/29
f 50/68/8 51/69/8 49/70/8
f 55/71/7 54/72/7 53/73/7
f 54/72/2 49/74/2 53/73/2
f 52/75/1 55/71/1 51/69/1
f 57/76/30 60/77/30 59/78/30
f 61/79/31 64/80/31 62/81/31
f 60/77/32 63/82/32 59/78/32
f 58/83/33 61/84/33 62/85/33
f 66/86/1 67/87/1 65/88/1
f 71/89/2 70/90/2 69/91/2
f 65/92/27 70/93/27 66/94/27
f 70/93/3 68/95/3 66/94/3
f 72/96/29 67/87/29 68/95/29
f 67/87/5 69/97/5 65/98/5
f 74/99/15 75/100/15 73/101/15
f 79/102/14 78/103/14 77/104/14
f 78/103/2 73/105/2 77/104/2
f 76/106/1 79/102/1 75/100/1
f 81/107/34 84/108/34 83/109/34
f 85/110/35 88/111/35 86/112/35
f 84/108/36 87/113/36 83/109/36
f 82/114/37 85/115/37 86/116/37
f 90/117/1 91/118/1 89/119/1
f 95/120/2 94/121/2 93/122/2
f 89/123/4 94/124/4 90/125/4
f 94/124/26 92/126/26 90/125/26
f 96/127/6 91/118/6 92/126/6
f 91/118/28 93/128/28 89/129/28
f 98/130/14 99/131/14 97/132/14
f 103/133/15 102/134/15 101/135/15
f 102/134/2 97/136/2 101/135/2
f 100/137/1 103/133/1 99/131/1
f 105/138/38 108/139/38 107/140/38
f 109/141/39 112/142/39 110/143/39
f 108/139/40 111/144/40 107/140/40
f 106/145/41 109/146/41 110/147/41
f 2/1/1 4/10/1 3/2/1
f 7/4/2 8/11/2 6/5/2
f 1/7/3 5/148/3 6/8/3
f 6/8/4 8/11/4 4/10/4
f 8/11/5 7/4/5 3/2/5
f 3/2/6 7/4/6 5/12/6
f 10/14/7 12/21/7 11/15/7
f 15/17/8 16/149/8 14/18/8
f 14/18/2 10/150/2 9/20/2
f 12/21/1 16/149/1 15/17/1
f 17/22/9 18/29/9 20/23/9
f 21/25/10 23/28/10 24/26/10
f 20/23/11 24/26/11 23/28/11
f 18/29/13 17/22/42 21/30/13
f 35/32/2 28/51/2 26/33/2
f 38/35/1 40/54/1 39/36/1
f 34/38/7 30/151/7 29/39/7
f 36/41/14 32/152/14 30/42/14
f 27/44/8 31/153/8 32/45/8
f 25/47/15 29/154/15 31/48/15
f 25/50/16 27/155/16 35/32/16
f 27/44/17 36/46/17 28/51/17
f 36/52/18 34/156/19 26/33/19
f 34/53/20 25/157/20 33/34/20
f 29/39/21 30/151/21 38/35/21
f 30/42/22 32/152/23 40/54/23
f 32/45/24 31/153/24 39/36/24
f 31/48/25 29/154/25 37/37/25
f 42/55/1 44/64/1 43/56/1
f 47/58/2 48/65/2 46/59/2
f 41/61/26 45/158/26 46/62/26
f 46/62/27 48/65/27 44/64/27
f 48/65/28 47/58/28 43/56/28
f 43/56/29 47/58/29 45/66/29
f 50/68/8 52/75/8 51/69/8
f 55/71/7 56/159/7 54/72/7
f 54/72/2 50/160/2 49/74/2
f 52/75/1 56/159/1 55/71/1
f 57/76/30 58/83/30 60/77/30
f 61/79/31 63/82/31 64/80/31
f 60/77/32 64/80/32 63/82/32
f 58/83/33 57/76/33 61/84/33
f 66/86/1 68/95/1 67/87/1
f 71/89/2 72/96/2 70/90/2
f 65/92/27 69/161/27 70/93/27
f 70/93/3 72/96/3 68/95/3
f 72/96/29 71/89/29 67/87/29
f 67/87/5 71/89/5 69/97/5
f 74/99/15 76/106/15 75/100/15
f 79/102/14 80/162/14 78/103/14
f 78/103/2 74/163/2 73/105/2
f 76/106/1 80/162/1 79/102/1
f 81/107/34 82/114/34 84/108/34
f 85/110/35 87/113/35 88/111/35
f 84/108/36 88/111/36 87/113/36
f 82/114/37 81/107/37 85/115/37
f 90/117/1 92/126/1 91/118/1
f 95/120/2 96/127/2 94/121/2
f 89/123/4 93/164/4 94/124/4
f 94/124/26 96/127/26 92/126/26
f 96/127/6 95/120/6 91/118/6
f 91/118/28 95/120/28 93/128/28
f 98/130/14 100/137/14 99/131/14
f 103/133/15 104/165/15 102/134/15
f 102/134/2 98/166/2 97/136/2
f 100/137/1 104/165/1 103/133/1
f 105/138/38 106/145/38 108/139/38
f 109/141/39 111/144/39 112/142/39
f 108/139/40 112/142/40 111/144/40
f 106/145/41 105/138/41 109/146/41
