# Blender v3.1.2 OBJ File: ''
# www.blender.org
mtllib Table.mtl
o mesa01_메쉬.065
v 1.804076 1.695527 -1.041244
v 3.298417 1.695527 -1.171418
v 1.734651 1.695527 -1.838226
v 3.228991 1.695527 -1.968399
v 1.804076 1.712542 -1.041244
v 3.298417 1.712542 -1.171418
v 1.734651 1.712542 -1.838226
v 3.228991 1.712542 -1.968399
v 1.778679 1.640228 -1.736459
v 1.829844 1.640228 -1.149102
v 1.804895 1.640228 -1.738743
v 1.856060 1.640228 -1.151386
v 1.778679 1.695527 -1.736459
v 1.829844 1.695527 -1.149102
v 1.804895 1.695527 -1.738743
v 1.856060 1.695527 -1.151386
v 1.952303 1.640228 -1.084692
v 3.144910 1.640228 -1.188581
v 1.950019 1.640228 -1.110908
v 3.142626 1.640228 -1.214797
v 1.952303 1.695527 -1.084692
v 3.144910 1.695527 -1.188581
v 1.950019 1.695527 -1.110908
v 3.142626 1.695527 -1.214797
v 3.254389 1.640228 -1.273184
v 3.203224 1.640228 -1.860541
v 3.228173 1.640228 -1.270900
v 3.177007 1.640228 -1.858258
v 3.254389 1.695527 -1.273184
v 3.203224 1.695527 -1.860541
v 3.228173 1.695527 -1.270900
v 3.177007 1.695527 -1.858258
v 3.080765 1.640228 -1.924952
v 1.888158 1.640228 -1.821063
v 3.083048 1.640228 -1.898735
v 1.890441 1.640228 -1.794846
v 3.080765 1.695527 -1.924952
v 1.888158 1.695527 -1.821063
v 3.083048 1.695527 -1.898735
v 1.890441 1.695527 -1.794846
v 1.833201 1.100000 -1.069086
v 1.952748 1.100000 -1.079500
v 1.826258 1.100000 -1.148784
v 1.945805 1.100000 -1.159198
v 1.833201 1.695527 -1.069086
v 1.952748 1.695527 -1.079500
v 1.826258 1.695527 -1.148785
v 1.945805 1.695527 -1.159198
v 3.199867 1.100000 -1.940557
v 3.080320 1.100000 -1.930143
v 3.206810 1.100000 -1.860859
v 3.087262 1.100000 -1.850445
v 3.199867 1.695527 -1.940557
v 3.080320 1.695527 -1.930143
v 3.206810 1.695527 -1.860859
v 3.087262 1.695527 -1.850445
v 3.264917 1.100000 -1.193805
v 3.145370 1.100000 -1.183391
v 3.257975 1.100000 -1.273503
v 3.138428 1.100000 -1.263089
v 3.264917 1.695527 -1.193805
v 3.145370 1.695527 -1.183391
v 3.257975 1.695527 -1.273503
v 3.138427 1.695527 -1.263089
v 1.768150 1.100000 -1.815839
v 1.887697 1.100000 -1.826253
v 1.775093 1.100000 -1.736140
v 1.894640 1.100000 -1.746554
v 1.768150 1.695527 -1.815839
v 1.887697 1.695527 -1.826253
v 1.775093 1.695527 -1.736140
v 1.894640 1.695527 -1.746554
vt 0.031173 0.518078
vt 0.750376 0.134503
vt 0.031173 0.134503
vt 0.748706 0.922215
vt 0.039426 0.543932
vt 0.039425 0.922214
vt 0.748706 0.931672
vt 0.039425 0.931671
vt 0.758163 0.543932
vt 0.758163 0.922215
vt 0.039426 0.534474
vt 0.748706 0.543932
vt 0.748706 0.534475
vt 0.029968 0.922214
vt 0.029968 0.543931
vt 0.040311 0.078363
vt 0.324789 0.065666
vt 0.040311 0.065666
vt 0.040311 0.034303
vt 0.324789 0.078363
vt 0.040311 0.109726
vt 0.324789 0.109726
vt 0.917914 0.063688
vt 0.355028 0.076062
vt 0.917914 0.076062
vt 0.917914 0.106625
vt 0.355028 0.033125
vt 0.355028 0.063688
vt 0.040311 0.078363
vt 0.324789 0.065666
vt 0.040311 0.065666
vt 0.040311 0.034303
vt 0.324789 0.109726
vt 0.324789 0.078363
vt 0.917914 0.063688
vt 0.355028 0.076062
vt 0.917914 0.076062
vt 0.917914 0.106625
vt 0.355028 0.033125
vt 0.355028 0.063688
vt 0.934958 0.135026
vt 0.874726 0.175180
vt 0.934958 0.175180
vt 0.934958 0.518220
vt 0.834571 0.175180
vt 0.874726 0.518220
vt 0.774339 0.175180
vt 0.834571 0.518220
vt 0.975112 0.518220
vt 0.975112 0.175180
vt 0.934958 0.135026
vt 0.874726 0.175180
vt 0.934958 0.175180
vt 0.934958 0.518220
vt 0.834571 0.175180
vt 0.874726 0.518220
vt 0.774339 0.175180
vt 0.834571 0.518220
vt 0.975112 0.518220
vt 0.975112 0.175180
vt 0.874726 0.175180
vt 0.934958 0.135026
vt 0.934958 0.175180
vt 0.934958 0.518220
vt 0.874726 0.518220
vt 0.834571 0.175180
vt 0.834571 0.518220
vt 0.774339 0.175180
vt 0.975112 0.518220
vt 0.975112 0.175180
vt 0.874726 0.175180
vt 0.934958 0.135026
vt 0.934958 0.175180
vt 0.934958 0.518220
vt 0.874726 0.518220
vt 0.834571 0.175180
vt 0.834571 0.518220
vt 0.774339 0.175180
vt 0.975112 0.518220
vt 0.975112 0.175180
vt 0.750376 0.518078
vt 0.324789 0.034303
vt 0.355028 0.106625
vt 0.917914 0.033125
vt 0.324789 0.034303
vt 0.040311 0.109726
vt 0.355028 0.106625
vt 0.917914 0.033125
vt 0.874726 0.135026
vt 0.774339 0.518220
vt 0.874726 0.135026
vt 0.774339 0.518220
vt 0.874726 0.135026
vt 0.774339 0.518220
vt 0.874726 0.135026
vt 0.774339 0.518220
vn 0.0000 -1.0000 0.0000
vn 0.0000 1.0000 -0.0000
vn 0.0868 0.0000 0.9962
vn 0.9962 0.0000 -0.0868
vn -0.0868 0.0000 -0.9962
vn -0.9962 0.0000 0.0868
usemtl BASE.139
s 1
f 3/1/1 2/2/1 1/3/1
f 6/4/2 7/5/2 5/6/2
f 2/7/3 5/6/3 1/8/3
f 4/9/4 6/4/4 2/10/4
f 3/11/5 8/12/5 4/13/5
f 1/14/6 7/5/6 3/15/6
f 11/16/1 10/17/1 9/18/1
f 10/17/6 13/19/6 9/18/6
f 12/20/4 15/21/4 16/22/4
f 19/23/1 18/24/1 17/25/1
f 18/24/3 21/26/3 17/25/3
f 19/23/5 24/27/5 20/28/5
f 27/29/1 26/30/1 25/31/1
f 26/30/4 29/32/4 25/31/4
f 27/29/6 32/33/6 28/34/6
f 35/35/1 34/36/1 33/37/1
f 34/36/5 37/38/5 33/37/5
f 35/35/3 40/39/3 36/40/3
f 43/41/1 42/42/1 41/43/1
f 42/42/3 45/44/3 41/43/3
f 44/45/4 46/46/4 42/42/4
f 43/47/5 48/48/5 44/45/5
f 41/43/6 47/49/6 43/50/6
f 51/51/1 50/52/1 49/53/1
f 50/52/5 53/54/5 49/53/5
f 52/55/6 54/56/6 50/52/6
f 51/57/3 56/58/3 52/55/3
f 49/53/4 55/59/4 51/60/4
f 58/61/1 59/62/1 57/63/1
f 61/64/3 58/61/3 57/63/3
f 62/65/6 60/66/6 58/61/6
f 64/67/5 59/68/5 60/66/5
f 63/69/4 57/63/4 59/70/4
f 66/71/1 67/72/1 65/73/1
f 69/74/5 66/71/5 65/73/5
f 70/75/4 68/76/4 66/71/4
f 72/77/3 67/78/3 68/76/3
f 71/79/6 65/73/6 67/80/6
f 6/4/2 8/12/2 7/5/2
f 4/9/4 8/12/4 6/4/4
f 3/1/1 4/81/1 2/2/1
f 2/7/3 6/4/3 5/6/3
f 3/11/5 7/5/5 8/12/5
f 1/14/6 5/6/6 7/5/6
f 11/16/1 12/20/1 10/17/1
f 10/17/6 14/82/6 13/19/6
f 12/20/4 11/16/4 15/21/4
f 19/23/1 20/28/1 18/24/1
f 18/24/3 22/83/3 21/26/3
f 19/23/5 23/84/5 24/27/5
f 27/29/1 28/34/1 26/30/1
f 26/30/4 30/85/4 29/32/4
f 27/29/6 31/86/6 32/33/6
f 35/35/1 36/40/1 34/36/1
f 34/36/5 38/87/5 37/38/5
f 35/35/3 39/88/3 40/39/3
f 43/41/1 44/89/1 42/42/1
f 42/42/3 46/46/3 45/44/3
f 44/45/4 48/48/4 46/46/4
f 43/47/5 47/90/5 48/48/5
f 41/43/6 45/44/6 47/49/6
f 51/51/1 52/91/1 50/52/1
f 50/52/5 54/56/5 53/54/5
f 52/55/6 56/58/6 54/56/6
f 51/57/3 55/92/3 56/58/3
f 49/53/4 53/54/4 55/59/4
f 58/61/1 60/93/1 59/62/1
f 61/64/3 62/65/3 58/61/3
f 62/65/6 64/67/6 60/66/6
f 64/67/5 63/94/5 59/68/5
f 63/69/4 61/64/4 57/63/4
f 66/71/1 68/95/1 67/72/1
f 69/74/5 70/75/5 66/71/5
f 70/75/4 72/77/4 68/76/4
f 72/77/3 71/96/3 67/78/3
f 71/79/6 69/74/6 65/73/6
